# xmcd CD database file
# Copyright (C) 1993-1998 Ti Kan
#
# Track frame offsets:
#  183
#  27408
#  71045
#  80945
#  107870
#  126520
#  156458
#  177470
#  198445
#
# Disc length: 2946 seconds
#
# Revision: 1
# Processed by: cddbd v1.4b41PL1 Copyright (c) Steve Scherf et al.
# Submitted via: CDWizzard Release:4.32
#
DISCID=8c0b8009
DTITLE=Van Halen - Live 1992 [CD2]
DYEAR=1900
DGENRE=
TTITLE0=If You Want
TTITLE1=Eddie Solo
TTITLE2=You Really Got Me
TTITLE3=Cabo Wabo
TTITLE4=Jump
TTITLE5=In 'N' Out
TTITLE6=The Dream Is Over
TTITLE7=Best of Both Worlds
TTITLE8=Top of the World
EXTD=
EXTT0=
EXTT1=
EXTT2=
EXTT3=
EXTT4=
EXTT5=
EXTT6=
EXTT7=
EXTT8=
PLAYORDER=
